<?xml version="1.0" encoding="utf-8"?>
<!-- Generator: Adobe Illustrator 27.2.0, SVG Export Plug-In . SVG Version: 6.00 Build 0)  -->
<svg version="1.1"
	 id="svg5" xmlns:svg="http://www.w3.org/2000/svg" xmlns:sodipodi="http://sodipodi.sourceforge.net/DTD/sodipodi-0.dtd" xmlns:inkscape="http://www.inkscape.org/namespaces/inkscape"
	 xmlns="http://www.w3.org/2000/svg" xmlns:xlink="http://www.w3.org/1999/xlink" x="0px" y="0px" viewBox="0 0 512 512"
	 style="enable-background:new 0 0 512 512;" xml:space="preserve">
<sodipodi:namedview  bordercolor="#666666" borderopacity="1.0" id="namedview7" inkscape:current-layer="g14146" inkscape:cx="219.07692" inkscape:cy="259.69231" inkscape:document-units="px" inkscape:pagecheckerboard="0" inkscape:pageopacity="0.0" inkscape:pageshadow="2" inkscape:window-height="976" inkscape:window-maximized="0" inkscape:window-width="1680" inkscape:window-x="9" inkscape:window-y="16" inkscape:zoom="0.8125" pagecolor="#ffffff" showgrid="false">
	</sodipodi:namedview>
<g id="layer2" inkscape:groupmode="layer" inkscape:label="Camada 2">
	<g id="g14146" transform="translate(5.0474345,5.0474345)">
		<g id="path968">
			<path d="M251,440.7c-104.6,0-189.8-85.1-189.8-189.8c0-104.6,85.1-189.8,189.8-189.8c7.5,0,13.6,6.1,13.6,13.6
				s-6.1,13.6-13.6,13.6c-89.6,0-162.5,72.9-162.5,162.5S161.3,413.5,251,413.5c89.6,0,162.5-72.9,162.5-162.5
				c0-7.5,6.1-13.6,13.6-13.6s13.6,6.1,13.6,13.6C440.7,355.6,355.6,440.7,251,440.7z"/>
		</g>
		<g id="path7915">
			<path d="M421,218.7c-6,0-11.5-4-13.2-10.1C392.6,152,347.8,107.8,290.9,93.4c-7.3-1.9-11.7-9.3-9.9-16.6
				c1.9-7.3,9.3-11.7,16.6-9.9c66.4,16.8,118.7,68.4,136.6,134.5c2,7.3-2.3,14.7-9.6,16.7C423.4,218.5,422.2,218.7,421,218.7z"/>
		</g>
	</g>
</g>
</svg>
